HIERARCHY
ROOT hip
{
  OFFSET 0 0 0
  CHANNELS 6 Xposition Yposition Zposition Zrotation Yrotation Xrotation
  JOINT abdomen
  {
    OFFSET 0 20.6881 -0.73152
    CHANNELS 3 Zrotation Xrotation Yrotation
    JOINT chest
    {
      OFFSET 0 11.7043 -0.48768
      CHANNELS 3 Zrotation Xrotation Yrotation
      JOINT neck
      {
        OFFSET 0 22.1894 -2.19456
        CHANNELS 3 Zrotation Xrotation Yrotation
        JOINT head
        {
          OFFSET -0.24384 7.07133 1.2192
          CHANNELS 3 Zrotation Xrotation Yrotation
          JOINT leftEye
          {
            OFFSET 4.14528 8.04674 8.04672
            CHANNELS 3 Zrotation Xrotation Yrotation
            End Site
            {
              OFFSET 1 0 0
            }
          }
          JOINT rightEye
          {
            OFFSET -3.6576 8.04674 8.04672
            CHANNELS 3 Zrotation Xrotation Yrotation
            End Site
            {
              OFFSET 1 0 0
            }
          }
        }
      }
      JOINT rCollar
      {
        OFFSET -2.68224 19.2634 -4.8768
        CHANNELS 3 Zrotation Xrotation Yrotation
        JOINT rShldr
        {
          OFFSET -8.77824 -1.95073 1.46304
          CHANNELS 3 Zrotation Xrotation Yrotation
          JOINT rForeArm
          {
            OFFSET -28.1742 -1.7115 0.48768
            CHANNELS 3 Zrotation Xrotation Yrotation
            JOINT rHand
            {
              OFFSET -22.5879 0.773209 7.07136
              CHANNELS 3 Zrotation Xrotation Yrotation
              JOINT rThumb1
              {
                OFFSET -1.2192 -0.487915 3.41376
                CHANNELS 3 Zrotation Xrotation Yrotation
                JOINT rThumb2
                {
                  OFFSET -3.37035 -0.52449 3.41376
                  CHANNELS 3 Zrotation Xrotation Yrotation
                  End Site
                  {
                    OFFSET -1.78271 -1.18214 1.43049
                  }
                }
              }
              JOINT rIndex1
              {
                OFFSET -7.75947 0.938293 5.60832
                CHANNELS 3 Zrotation Xrotation Yrotation
                JOINT rIndex2
                {
                  OFFSET -2.54057 -0.884171 1.56538
                  CHANNELS 3 Zrotation Xrotation Yrotation
                  End Site
                  {
                    OFFSET -1.62519 -0.234802 1.16502
                  }
                }
              }
              JOINT rMid1
              {
                OFFSET -8.24714 1.18213 3.41376
                CHANNELS 3 Zrotation Xrotation Yrotation
                JOINT rMid2
                {
                  OFFSET -3.10165 -0.590103 1.0647
                  CHANNELS 3 Zrotation Xrotation Yrotation
                  End Site
                  {
                    OFFSET -2.48547 -0.328903 0.83742
                  }
                }
              }
              JOINT rRing1
              {
                OFFSET -8.82822 0.546677 1.51678
                CHANNELS 3 Zrotation Xrotation Yrotation
                JOINT rRing2
                {
                  OFFSET -2.60934 -0.819778 -0.0198488
                  CHANNELS 3 Zrotation Xrotation Yrotation
                  End Site
                  {
                    OFFSET -2.33842 -0.294052 0.168128
                  }
                }
              }
              JOINT rPinky1
              {
                OFFSET -8.27202 -0.0477905 -0.4584
                CHANNELS 3 Zrotation Xrotation Yrotation
                JOINT rPinky2
                {
                  OFFSET -1.82734 -0.647385 -0.700984
                  CHANNELS 3 Zrotation Xrotation Yrotation
                  End Site
                  {
                    OFFSET -1.69225 -0.51767 -0.607171
                  }
                }
              }
            }
          }
        }
      }
      JOINT lCollar
      {
        OFFSET 2.68224 19.2634 -4.8768
        CHANNELS 3 Zrotation Xrotation Yrotation
        JOINT lShldr
        {
          OFFSET 8.77824 -1.95073 1.46304
          CHANNELS 3 Zrotation Xrotation Yrotation
          JOINT lForeArm
          {
            OFFSET 28.1742 -1.7115 0.48768
            CHANNELS 3 Zrotation Xrotation Yrotation
            JOINT lHand
            {
              OFFSET 22.5879 0.773209 7.07136
              CHANNELS 3 Zrotation Xrotation Yrotation
              JOINT lThumb1
              {
                OFFSET 1.2192 -0.487915 3.41376
                CHANNELS 3 Zrotation Xrotation Yrotation
                JOINT lThumb2
                {
                  OFFSET 3.37035 -0.52449 3.41376
                  CHANNELS 3 Zrotation Xrotation Yrotation
                  End Site
                  {
                    OFFSET 1.78271 -1.18214 1.43049
                  }
                }
              }
              JOINT lIndex1
              {
                OFFSET 7.75947 0.938293 5.60832
                CHANNELS 3 Zrotation Xrotation Yrotation
                JOINT lIndex2
                {
                  OFFSET 2.54057 -0.884171 1.56538
                  CHANNELS 3 Zrotation Xrotation Yrotation
                  End Site
                  {
                    OFFSET 1.62519 -0.234802 1.16502
                  }
                }
              }
              JOINT lMid1
              {
                OFFSET 8.24714 1.18213 3.41376
                CHANNELS 3 Zrotation Xrotation Yrotation
                JOINT lMid2
                {
                  OFFSET 3.10165 -0.590103 1.0647
                  CHANNELS 3 Zrotation Xrotation Yrotation
                  End Site
                  {
                    OFFSET 2.48547 -0.328903 0.83742
                  }
                }
              }
              JOINT lRing1
              {
                OFFSET 8.82822 0.546677 1.51678
                CHANNELS 3 Zrotation Xrotation Yrotation
                JOINT lRing2
                {
                  OFFSET 2.60934 -0.819778 -0.0198488
                  CHANNELS 3 Zrotation Xrotation Yrotation
                  End Site
                  {
                    OFFSET 2.33842 -0.294052 0.168128
                  }
                }
              }
              JOINT lPinky1
              {
                OFFSET 8.27202 -0.0477905 -0.4584
                CHANNELS 3 Zrotation Xrotation Yrotation
                JOINT lPinky2
                {
                  OFFSET 1.82734 -0.647385 -0.700984
                  CHANNELS 3 Zrotation Xrotation Yrotation
                  End Site
                  {
                    OFFSET 1.69225 -0.51767 -0.607171
                  }
                }
              }
            }
          }
        }
      }
    }
  }
  JOINT rButtock
  {
    OFFSET -8.77824 4.35084 1.2192
    CHANNELS 3 Zrotation Xrotation Yrotation
    JOINT rThigh
    {
      OFFSET 0 -1.70687 -2.19456
      CHANNELS 3 Zrotation Xrotation Yrotation
      JOINT rShin
      {
        OFFSET 0 -36.8199 0.73152
        CHANNELS 3 Zrotation Xrotation Yrotation
        JOINT rFoot
        {
          OFFSET 0.73152 -45.1104 -5.12064
          CHANNELS 3 Zrotation Xrotation Yrotation
          End Site
          {
            OFFSET -1.1221 -3.69964 12.103
          }
        }
      }
    }
  }
  JOINT lButtock
  {
    OFFSET 8.77824 4.35084 1.2192
    CHANNELS 3 Zrotation Xrotation Yrotation
    JOINT lThigh
    {
      OFFSET 0 -1.70687 -2.19456
      CHANNELS 3 Zrotation Xrotation Yrotation
      JOINT lShin
      {
        OFFSET 0 -36.8199 0.73152
        CHANNELS 3 Zrotation Xrotation Yrotation
        JOINT lFoot
        {
          OFFSET -0.73152 -45.1104 -5.12064
          CHANNELS 3 Zrotation Xrotation Yrotation
          End Site
          {
            OFFSET 1.1221 -3.69964 12.103
          }
        }
      }
    }
  }
}
MOTION
Frames:	4
Frame Time:	0.03333
0.03916453570127487 61.81463003158569 -0.0012573087587952614 -6.444138340387168 5.236504972955084 2.513781328027612 -2.3501509129684397 14.762871617355819 3.8962737280709576 2.5929910318322498 -9.713337523401131 1.2265869289354576 -4.858295200496675 15.28894644760854 -3.4845129991923884 8.45926954178354 -24.926529489151413 -5.169026545936766 0.011833062613209083 0.017548516885908153 -0.0034533676567422475 -0.0038123127739249293 -0.014342490122527635 0.0181871128928779 0.05872369864752178 -0.06480515501019833 0.027004183415116862 49.29057923977394 30.1332817311951 15.789703474155317 -23.872651790785955 -29.474984683894686 66.45797285065585 -4.720541810881743 -11.25577438422937 -5.136417088405009 0.0030371930248342636 -0.03744229661721654 0.022831268002516333 0.026680106280244965 -0.0003333986088612474 -0.019114231031427793 -0.07170567378432105 0.018817384606796692 0.0190359506602371 7.68554229750991 5.431118406749904 0.41457850207631664 0.023785813619452062 -0.0044310585436193265 -0.002339339790729367 2.9135604109980977 0.9613275678947268 0.08208441303241988 -0.03728920433027305 -0.00903415247695835 0.02663869825840176 10.215808073655937 0.7035563353401514 0.03582204768004258 -0.02515617368253876 0.02142854458215141 -0.008249881341596925 2.16051135099327 -0.7364521805693724 -0.2145912835498573 -0.00802675293523436 -0.0038590035202043134 -0.0037598056946804566 -58.42735744344584 32.160898518394255 -25.671598967214962 23.00754344560673 -27.443421754902555 -62.422779051282355 5.091694717267059 -13.622591172216053 4.107881099407592 -0.006561037028031936 0.027797856065746973 -0.008436297481170672 -0.025434770695481234 -0.008339687657012014 -0.008879992972957046 -0.015428650283118335 0.006077561020415526 -0.007164815078490485 -7.698537586179506 5.482058384466682 -0.4276979347701624 0.01507625521062799 -0.04652890281256647 0.0001962078560791944 -2.8954849556898936 0.9478018723473975 -0.09539130240247078 0.0030274813496081517 -0.002572313274450271 -0.054938333104306666 -10.222689489244724 0.7071508291125764 -0.04379869477441255 -0.021042425450634127 -0.016605870739167056 -0.0215706978942523 -2.2398836986775192 -0.7234178317554609 0.18266236365544264 -0.042900044650879855 0.010354726864298003 0.005346117129415918 -31.80187303976712 -35.67812833715442 -27.743029710392456 -5.354948564012744 62.139749672455366 6.3186541049556935 -4.74780877982208 -10.183707038330523 -10.377074816375462 0.015633289153954264 0.03266313854976457 0.06664236917522598 37.717028596862434 -34.246295290877136 31.05573975974034 5.407680612613005 63.34321534383327 -6.5744481044672565 5.0123035865625925 -10.125345633193703 13.913745914834417
0.06120717152953148 62.78476119041443 -0.07894965820014477 -6.857898393701847 5.330380800455032 1.8863057228002922 -2.4529868814423863 14.883876956239057 3.8481580335759795 2.607520338300748 -9.786149901274406 1.1703487521351594 -4.967246963042133 15.428736514256606 -3.556130947734557 8.431637157722607 -24.908330450107915 -5.205606477810416 -0.015267447146535456 0.00877503217532099 -0.02963999276945379 -0.016804079627229653 0.043414603355305115 0.0014897282910032498 0.07664524791577576 -0.09854548909726796 0.05786142728544733 49.35419562170344 30.21057556693755 16.300019350445528 -24.0873604948926 -29.486616496051216 66.43997530219286 -4.871506920785595 -11.57185504845005 -5.316073261691147 0.03610694127362616 -0.12266310049999454 0.0549504726983393 0.04860485343342722 0.026553427615482385 -0.003429555376139762 -0.1083263733495791 0.05998752376781214 0.01293557787521079 7.838737464177773 5.463045699138305 0.3792619417557079 0.07608830735394205 -0.003476272802845591 -0.04265981409116581 2.9352846814269693 0.943388716369923 0.06142213029777928 -0.03158186090721337 -0.020717778021646958 -0.026632828564583783 10.42860090970039 0.7531143736887657 0.09082014493958686 -0.013537701739229725 0.05256364174853719 -0.07762459298909245 2.1712567326615813 -0.7369408592601456 -0.21956723644277026 -0.003780402983896276 -0.05436328987312977 0.01868014049316175 -58.723821804370246 32.415183046099244 -25.448885281401065 23.20551306360496 -27.536447223850836 -62.46363724289737 4.897816809468485 -13.396527278614263 4.282385175625425 0.0004210171293078172 0.05893999686471433 -0.017212236790990806 0.004281247949128618 0.040105883630536396 0.00974337157272897 -0.020499532133323894 0.02777877956083854 0.0392023509889642 -7.780288120355388 5.584562875322471 -0.4217543895317819 0.06836133569024777 -0.08992739119029859 -0.019930331915538536 -2.9011294667086744 0.9495683300214921 -0.1290522889012919 0.017349907791448873 -0.04834023696394212 -0.030862609971099297 -10.34856987564806 0.6870900832725729 -0.014921828902362232 -0.02466896241522 -0.0435176431622371 0.0032338811285894747 -2.2748316422263586 -0.6672267725882651 0.18296321214404054 -0.04350259540172192 0.014204979204628237 -0.038715299804204115 -31.56105423001081 -35.66856265722181 -27.120230863755893 -4.830877113620952 62.036606985799004 5.797559336381557 -4.848144258729567 -10.246555023978395 -10.337937832431288 -0.00467094225778958 0.03410382154685463 0.07951855642116938 37.9164018187351 -34.18812598481072 30.652051674130494 5.286054580288941 63.32589398409812 -6.475320288382392 4.97873192613151 -10.037673325007418 13.86201662338168
0.21511735394597054 70.64704895019531 1.3521672692149878 -80.33648694220405 -44.841974580507085 -72.39174750342862 0.7132950645186789 11.136037752984462 10.514981458359896 -0.46766006426301115 -7.585592724290529 2.658049650893679 -8.400940580045278 16.71876458808067 -11.819197542637369 10.067041430891182 -25.316990913433532 -22.291845488521524 -0.016896607346142168 -0.2542985616093 -0.19050786311362045 -0.141512341535967 0.1637359094653373 -0.16105417976203462 -0.22588193309343216 -0.09832996461244232 0.08957548970569748 20.280839721383842 -15.827607608954303 47.27470013266345 -13.156822643466311 -6.906027748575164 25.223736633148057 -1.915780977276659 24.768074223048995 3.2535922007604854 0.020033371722470526 0.006663436504729237 0.17504947749522876 -0.1918115087703805 -0.25218888692941227 0.009394071429706287 -0.1445804838554779 -0.3145031039658187 0.0002635492524272889 7.480319872386769 5.03768328885789 0.40105824933598216 0.020878607632259603 0.3550193859159377 -0.12460159356380879 2.5711209795532803 1.0107510301723506 0.0494806117510698 0.04255677428423382 0.12153611928694244 -0.27100226947224215 10.503680056604464 0.8007080923207666 -0.13342553096080412 -0.10131843917858735 0.029047513879594852 -0.07570510972912053 1.9896857585303125 -0.5084798360639461 0.19996576746359726 -0.0010395227751642062 -0.09375560549838495 0.09488712238393276 -104.29920843757496 48.93432340285524 42.995228032719034 25.971710649156154 -34.51333519685712 -74.1581710265773 3.682514420258946 -48.87729473838022 7.860124494016375 -0.10483998866511073 -0.020174884704336725 -0.13959321846175207 0.014619166144766042 0.1099346427752791 -0.27010783485608786 0.056835178022439696 0.23191835289626894 -0.06414684216808546 -7.47537481542768 5.195897363905242 -0.208352946279682 -0.20966428923947156 -0.14660926348238323 0.11389207038864035 -2.637072218961866 0.6499122430422828 0.008657985144505187 0.2287281476257705 -0.04347298012836756 -0.03460528683200183 -9.712361660123467 0.388597476329793 0.1772144873795641 -0.21239174919370163 -0.3446013997605377 -0.5362215031515992 -2.3188955404396383 -0.14807615332834925 0.3653357730074337 -0.35059467731381233 0.3652148039539304 0.2898794182342765 7.287070768878659 -19.87564899415659 -1.8820594795706598 -0.47968551943131776 46.93895876891689 4.230426219061845 -16.751674147049084 -15.262236992859204 -27.735822153270803 0.004007133247828965 -0.0148127059582007 -0.2562559977758904 -7.556088868397012 -52.46095156191334 -19.22045797538124 3.295025408926252 58.81602935816542 -3.626278484614469 -1.5902209709833532 -5.430904536451518 -3.4110432156115
0.07336214184761047 72.43175506591797 1.7631956841796637 -170.8600917484554 -51.035795025549746 -165.5138567982763 0.9099256986353265 8.655505999279884 11.067444724470963 -0.4309411807284342 -7.438980152435266 2.4556301646511813 -7.097014351920707 19.886271645863253 -16.45263821990217 11.789048233867286 -30.131727863158922 -30.502941814359946 0.0789817462410887 -0.40288495141299036 -0.0540376419281509 -0.4435211085191283 0.2023894440823204 0.19532588122219008 0.1851158022898656 0.41216488397836337 -0.2378090175294347 22.221349398550533 -29.213484061331577 43.02796512941091 -8.415723670730124 -3.911827776358369 20.06254346041565 -5.162163486481373 30.319974706873644 4.10374968873338 0.12663992478338157 0.1931266937115782 0.5189051059757657 -0.053122703404273316 0.23175883062655211 0.10515801934833945 0.3607682440825463 -0.03490461453629235 -0.2182670725816613 7.352611556606809 5.318392964688013 0.602867394143116 0.017775567314958184 0.4359832210376523 0.03917631089275353 2.5822921808276593 0.9238387939746425 0.1619042448290103 0.19483290698275912 0.24890890202392524 -0.010228528447211439 11.25639422389655 0.527242419074824 -0.04620033336089183 0.07404981605181059 -0.5271207563302333 0.4379016237403532 2.3504151559119544 -0.4932761551366151 0.20095633165623422 0.5278800279060153 0.15438313933576844 0.35639927089126533 -104.3440691200436 49.811910503648086 43.709003291552875 26.638893772566753 -37.58974460658466 -77.76878660676448 7.542603513654469 -50.538021084122974 6.585192845805333 -0.5397914509316944 0.5343363175798228 -0.11052825558326197 0.309900090073759 0.2738781793192142 0.04456196841416147 0.3963313315435102 0.023957662246186638 -0.03102698807842917 -8.229195473365307 5.119153358390979 0.4822425181409884 -0.6629844247008939 -0.03712714742004392 0.06713339574352642 -2.7890029468596294 0.5719629225829239 -0.2806220839901027 0.1664842068326212 0.06270156346754018 0.033490685336820376 -9.993847416198031 0.14897256229606054 0.32061089390939684 0.532531920339323 -0.4677710548370239 -0.9977563818329899 -2.3828451075345867 -0.22605642308238483 0.5758701643141414 -0.3187848321626233 0.494384673494567 0.5187899532552275 5.168194543518494 -9.291853379908815 -11.602314277053722 4.894075146463787 45.38074673242686 -0.1169158431589726 -22.812182959871436 -19.845741303328396 -38.57043682799343 0.1624305429210715 0.023716604593252793 -0.095013480883578 -16.76381993094066 -61.815930403905064 -28.243025170846778 5.52062931648339 67.44227141194638 -5.475383155213463 -3.316342856212685 -13.093566554015531 -13.512316914292551
